<svg width="225" height="225" viewBox="0 0 225 225" fill="none" xmlns="http://www.w3.org/2000/svg">
<path d="M110.342 172.929C109.883 178.904 110.159 192.647 114.933 199.817C120.902 208.78 121.82 212.554 121.82 216.092" stroke="black" stroke-width="2.25201" stroke-linecap="round"/>
<path d="M109.21 168.237C109.643 167.487 110.727 167.487 111.16 168.237L114.085 173.304C114.519 174.055 113.977 174.993 113.11 174.993H107.26C106.393 174.993 105.851 174.055 106.284 173.304L109.21 168.237Z" fill="#AD3A56"/>
<path d="M182.812 83.9748C180.936 124.857 146.549 163.205 110.532 170.302C74.2782 163.678 44.8958 123.699 43 82.7729C43 38.5352 78.7593 7.78174 115.271 7.78174C151.783 7.78174 184.847 39.6552 182.812 83.9748Z" fill="url(#paint0_radial_5_177)"/>
<path d="M78.8445 107.245C85.3742 107.245 90.6676 101.952 90.6676 95.4222C90.6676 88.8925 85.3742 83.5991 78.8445 83.5991C72.3148 83.5991 67.0215 88.8925 67.0215 95.4222C67.0215 101.952 72.3148 107.245 78.8445 107.245Z" fill="#CD0031" fill-opacity="0.5"/>
<path d="M143.402 107.245C149.932 107.245 155.225 101.952 155.225 95.4222C155.225 88.8925 149.932 83.5991 143.402 83.5991C136.872 83.5991 131.579 88.8925 131.579 95.4222C131.579 101.952 136.872 107.245 143.402 107.245Z" fill="#CD0031" fill-opacity="0.4"/>
<path d="M132.893 91.4814C136.313 91.4814 139.086 88.7927 139.086 85.4761C139.086 82.1594 136.313 79.4707 132.893 79.4707C129.472 79.4707 126.7 82.1594 126.7 85.4761C126.7 88.7927 129.472 91.4814 132.893 91.4814Z" fill="#222222"/>
<path d="M89.3537 91.4814C92.774 91.4814 95.5467 88.7927 95.5467 85.4761C95.5467 82.1594 92.774 79.4707 89.3537 79.4707C85.9334 79.4707 83.1606 82.1594 83.1606 85.4761C83.1606 88.7927 85.9334 91.4814 89.3537 91.4814Z" fill="#222222"/>
<mask id="mask0_5_177" style="mask-type:alpha" maskUnits="userSpaceOnUse" x="100" y="93" width="23" height="16">
<path d="M100.759 94.5991C100.759 94.3005 100.877 94.0141 101.089 93.8029C101.3 93.5918 101.586 93.4731 101.885 93.4731H120.938C121.236 93.4731 121.523 93.5918 121.734 93.8029C121.945 94.0141 122.064 94.3005 122.064 94.5991V107.023C122.064 107.322 121.945 107.609 121.734 107.82C121.523 108.031 121.236 108.149 120.938 108.149H101.885C101.586 108.149 101.3 108.031 101.089 107.82C100.877 107.609 100.759 107.322 100.759 107.023V94.5991Z" fill="#C4C4C4"/>
</mask>
<g mask="url(#mask0_5_177)">
<path d="M122.064 94.1832C122.064 100.066 117.294 104.836 111.411 104.836C105.528 104.836 100.759 100.066 100.759 94.1832C100.759 88.3001 105.528 83.5308 111.411 83.5308C117.294 83.5308 122.064 88.3001 122.064 94.1832Z" fill="#222222"/>
</g>
<defs>
<radialGradient id="paint0_radial_5_177" cx="0" cy="0" r="1" gradientUnits="userSpaceOnUse" gradientTransform="translate(58.165 112.817) rotate(-30.8525) scale(133.314 116.296)">
<stop stop-color="#FF3767"/>
<stop offset="0.807" stop-color="#F36D76"/>
<stop offset="1" stop-color="#FFE1DA"/>
</radialGradient>
</defs>
</svg>
