<svg width="54" height="36" viewBox="0 0 54 36" fill="none" xmlns="http://www.w3.org/2000/svg">
<g clip-path="url(#clip0_111_5777)">
<path d="M30.24 36H50.22C50.8576 36.0001 51.4679 35.776 52.02 35.46C52.5722 35.144 53.1413 34.7473 53.46 34.2C53.7787 33.6527 54.0002 33.0317 54 32.3998C53.9998 31.7679 53.7792 31.1472 53.46 30.6001L39.96 7.38C39.6414 6.8328 39.252 6.43595 38.7 6.12C38.148 5.80406 37.3574 5.58 36.72 5.58C36.0826 5.58 35.472 5.80406 34.92 6.12C34.368 6.43595 33.9786 6.8328 33.66 7.38L30.24 13.32L23.4 1.79957C23.0811 1.25242 22.6922 0.675884 22.14 0.36C21.5879 0.0441156 20.9775 0 20.34 0C19.7025 0 19.0921 0.0441156 18.54 0.36C17.9878 0.675884 17.4189 1.25242 17.1 1.79957L0.360001 30.6001C0.0408572 31.1472 0.000278787 31.7679 1.36945e-06 32.3998C-0.000276048 33.0317 0.0413377 33.6526 0.360001 34.1999C0.678664 34.7472 1.24784 35.144 1.8 35.46C2.35216 35.776 2.9624 36.0001 3.6 36H16.2C21.1926 36 24.8265 33.7603 27.36 29.52L33.48 18.9L36.72 13.32L46.62 30.24H33.48L30.24 36ZM16.02 30.24H7.2L20.34 7.56L27 18.9L22.5884 26.5905C20.906 29.3418 18.9878 30.24 16.02 30.24Z" fill="#00DC82"/>
</g>
<defs>
<clipPath id="clip0_111_5777">
<rect width="54" height="36" fill="white"/>
</clipPath>
</defs>
</svg>
