<svg width="30" height="36" viewBox="0 0 30 36" fill="none" xmlns="http://www.w3.org/2000/svg">
<g clip-path="url(#clip0_111_5872)">
<path d="M1.13268 33.1727L0.00131496 3.4576C-0.0360497 2.47622 0.72734 1.64453 1.7217 1.58327L27.3628 0.00358622C28.375 -0.0587688 29.2468 0.699462 29.31 1.69714C29.3123 1.73473 29.3136 1.77238 29.3136 1.81004V34.1901C29.3136 35.1896 28.4915 36 27.4773 36C27.4499 36 27.4225 35.9995 27.395 35.9982L2.88522 34.9132C1.93067 34.8709 1.16852 34.114 1.13268 33.1727Z" fill="#FF4785"/>
<path fill-rule="evenodd" clip-rule="evenodd" d="M25.347 0.12793L21.8181 0.345334L21.6459 4.42511C21.6433 4.48783 21.6629 4.54949 21.7014 4.59952C21.7929 4.71832 21.9647 4.74157 22.0852 4.65145L23.6929 3.4493L25.0508 4.50374C25.1017 4.54325 25.1651 4.5637 25.2299 4.56148C25.3811 4.55628 25.4995 4.43125 25.4942 4.28221L25.347 0.12793ZM22.6004 13.7898C21.9543 14.2845 17.1423 14.622 17.1423 13.9178C17.2439 11.2307 16.0235 11.1129 15.3455 11.1129C14.7014 11.1129 13.6166 11.3049 13.6166 12.7444C13.6166 14.2113 15.2019 15.0394 17.0627 16.0114C19.7062 17.3922 22.9053 19.0635 22.9053 23.2686C22.9053 27.2992 19.5831 29.5256 15.3455 29.5256C10.9723 29.5256 7.15056 27.7816 7.58218 21.735C7.75169 21.0251 13.3114 21.1938 13.3114 21.735C13.2436 24.2302 13.82 24.9641 15.2777 24.9641C16.3964 24.9641 16.9049 24.3562 16.9049 23.3325C16.9049 21.7835 15.2531 20.8692 13.3529 19.8177C10.78 18.3937 7.75169 16.7179 7.75169 12.8723C7.75169 9.03367 10.4299 6.47458 15.2099 6.47458C19.99 6.47458 22.6004 8.99447 22.6004 13.7898Z" fill="white"/>
</g>
<defs>
<clipPath id="clip0_111_5872">
<rect width="30" height="36" fill="white"/>
</clipPath>
</defs>
</svg>
