<svg width="48" height="48" viewBox="0 0 48 48" fill="none" xmlns="http://www.w3.org/2000/svg">
<path d="M14.0398 8.6499C7.77979 8.6499 2.8698 13.7799 2.6098 20.5099L2.36981 29.4599C1.99981 36.8299 9.11977 39.3499 14.2698 39.3499L14.0398 8.6499Z" fill="url(#paint0_linear_8_199)"/>
<path d="M14.5299 8.65H35.8299C38.2137 8.58817 40.5246 9.47488 42.2551 11.1154C43.9857 12.756 44.9944 15.0163 45.0599 17.4L45.6399 30.13C45.7099 36.44 41.1299 39.03 35.8399 39.07L14.5299 39.34C9.03987 39.38 5.74987 35.24 5.84987 30.13L6.19987 17.4C6.54987 11.8 8.97987 8.75 14.5399 8.65H14.5299Z" fill="url(#paint1_linear_8_199)"/>
<path d="M15.7302 9.62982H35.7102C37.9366 9.56249 40.0986 10.3822 41.7208 11.9087C43.3429 13.4352 44.2923 15.5434 44.3602 17.7698L44.9002 29.6098C44.9602 35.4898 40.6702 37.8898 35.7102 37.9298L15.7302 38.1798C10.5902 38.2198 7.49024 34.3698 7.59024 29.6098L7.93024 17.7698C8.24024 12.5598 10.5202 9.72982 15.7302 9.62982Z" fill="#111827"/>
<path d="M36.82 19.25C37.3322 19.25 37.833 19.4019 38.2589 19.6865C38.6848 19.9711 39.0168 20.3756 39.2128 20.8488C39.4089 21.3221 39.4601 21.8429 39.3602 22.3453C39.2603 22.8477 39.0136 23.3092 38.6514 23.6714C38.2892 24.0336 37.8277 24.2803 37.3253 24.3802C36.8229 24.4802 36.3021 24.4289 35.8288 24.2328C35.3556 24.0368 34.9511 23.7049 34.6665 23.2789C34.3819 22.853 34.23 22.3523 34.23 21.84C34.23 21.1531 34.5029 20.4943 34.9886 20.0086C35.4743 19.5229 36.1331 19.25 36.82 19.25Z" fill="url(#paint2_linear_8_199)"/>
<path d="M16.84 19.25C17.3523 19.25 17.853 19.4019 18.2789 19.6865C18.7049 19.9711 19.0368 20.3756 19.2328 20.8488C19.4289 21.3221 19.4802 21.8429 19.3802 22.3453C19.2803 22.8477 19.0336 23.3092 18.6714 23.6714C18.3092 24.0336 17.8477 24.2803 17.3453 24.3802C16.8429 24.4802 16.3221 24.4289 15.8488 24.2328C15.3756 24.0368 14.9711 23.7049 14.6865 23.2789C14.4019 22.853 14.25 22.3523 14.25 21.84C14.25 21.1531 14.5229 20.4943 15.0086 20.0086C15.4943 19.5229 16.1531 19.25 16.84 19.25Z" fill="url(#paint3_linear_8_199)"/>
<defs>
<linearGradient id="paint0_linear_8_199" x1="7.24062" y1="16.6319" x2="-5.54589" y2="24.7407" gradientUnits="userSpaceOnUse">
<stop stop-color="#EAB308"/>
<stop offset="1" stop-color="#CA8A04"/>
</linearGradient>
<linearGradient id="paint1_linear_8_199" x1="19.3773" y1="9.26084" x2="27.2793" y2="39.6749" gradientUnits="userSpaceOnUse">
<stop stop-color="#FDE68A"/>
<stop offset="1" stop-color="#FBBF24"/>
</linearGradient>
<linearGradient id="paint2_linear_8_199" x1="34.23" y1="21.84" x2="39.41" y2="21.84" gradientUnits="userSpaceOnUse">
<stop stop-color="#7DD3FC"/>
<stop offset="1" stop-color="#0EA5E9"/>
</linearGradient>
<linearGradient id="paint3_linear_8_199" x1="14.25" y1="21.84" x2="19.43" y2="21.84" gradientUnits="userSpaceOnUse">
<stop stop-color="#7DD3FC"/>
<stop offset="1" stop-color="#0EA5E9"/>
</linearGradient>
</defs>
</svg>
