<svg width="1148" height="252" viewBox="0 0 1148 252" fill="none" xmlns="http://www.w3.org/2000/svg">
<g clip-path="url(#clip0_476_384)">
<path d="M62.3701 16.9963C95.3581 41.6795 130.838 91.7276 143.867 118.584C156.895 91.7276 192.376 41.6795 225.364 16.9963C249.166 -0.813789 287.734 -14.5944 287.734 29.2562C287.734 38.0135 282.696 102.824 279.741 113.347C269.47 149.927 232.045 159.258 198.753 153.61C256.945 163.481 271.749 196.178 239.778 228.874C179.06 290.971 152.509 213.294 145.706 193.39C144.459 189.742 143.876 188.035 143.867 189.486C143.858 188.035 143.275 189.742 142.028 193.39C135.224 213.294 108.674 290.971 47.9557 228.874C15.9852 196.178 30.7884 163.481 88.9813 153.61C55.6889 159.258 18.2637 149.927 7.99261 113.347C5.038 102.824 0 38.0135 0 29.2562C0 -14.5944 38.5677 -0.813789 62.3701 16.9963Z" fill="white"/>
<path d="M460.277 118.553C478.89 125.344 488.771 141.033 488.771 158.596C488.771 188.337 469.239 206.368 431.783 206.368H355.263V39.636H429.256C464.873 39.636 482.107 58.1357 482.107 82.724C482.107 99.1162 474.754 111.059 460.277 118.553ZM426.958 65.6293H386.285V109.186H426.958C442.813 109.186 451.315 100.755 451.315 86.705C451.315 73.8254 442.583 65.6293 426.958 65.6293ZM386.285 180.141H430.175C447.639 180.141 457.06 171.944 457.06 157.191C457.06 141.736 448.098 134.008 430.175 134.008H386.285V180.141Z" fill="white"/>
<path d="M531.783 206.368H502.83V39.636H531.783V206.368Z" fill="white"/>
<path d="M627.784 153.21V85.5341H656.737V206.368H628.703V188.805C619.741 202.387 607.332 209.178 591.477 209.178C566.43 209.178 550.115 193.723 550.115 165.622V85.5341H579.068V160.704C579.068 175.925 586.421 183.653 601.358 183.653C615.375 183.653 627.784 173.115 627.784 153.21Z" fill="white"/>
<path d="M788.527 148.059V155.084H699.828C701.896 175.925 713.156 186.229 730.62 186.229C743.948 186.229 752.91 180.375 757.735 168.9H785.54C779.336 193.488 758.654 209.178 730.39 209.178C712.696 209.178 698.449 203.324 687.649 191.849C676.849 180.375 671.334 165.153 671.334 145.951C671.334 126.983 676.619 111.762 687.42 100.053C698.22 88.5784 712.237 82.724 729.931 82.724C747.854 82.724 762.101 88.8126 772.672 100.755C783.242 112.698 788.527 128.622 788.527 148.059ZM729.701 105.673C713.845 105.673 702.815 115.04 700.058 134.477H759.574C757.046 116.913 746.476 105.673 729.701 105.673Z" fill="white"/>
<path d="M852.699 209.646C818.231 209.646 800.078 195.83 798.469 167.963H826.733C828.342 182.951 835.695 188.571 853.159 188.571C868.785 188.571 876.598 183.653 876.598 174.052C876.598 165.388 871.083 161.172 853.389 158.128L839.831 155.786C813.865 151.337 800.997 139.16 800.997 119.255C800.997 96.5403 818.691 82.724 850.172 82.724C883.951 82.724 901.415 96.3061 902.564 123.705H875.219C874.529 108.952 866.027 103.8 850.172 103.8C836.384 103.8 829.491 108.483 829.491 117.85C829.491 126.28 835.465 130.027 849.253 132.603L864.189 134.945C892.913 140.331 905.321 151.103 905.321 171.71C905.321 196.064 886.019 209.646 852.699 209.646Z" fill="white"/>
<path d="M1032.4 206.368H999.311L964.842 150.166L946.919 168.432V206.368H918.425V39.636H946.919V135.647L995.175 85.5341H1029.64L984.834 131.198L1032.4 206.368Z" fill="white"/>
<path d="M1108.02 115.977L1117.67 85.5341H1148L1102.27 216.203C1097.45 229.551 1091.47 239.152 1083.89 244.538C1076.3 249.924 1065.5 252.5 1051.26 252.5C1046.43 252.5 1042.3 252.266 1038.62 251.798V228.615H1049.65C1062.75 228.615 1069.18 220.418 1069.18 209.178C1069.18 203.558 1067.34 195.362 1063.67 184.824L1029.2 85.5341H1060.45L1070.1 115.743C1077.22 138.457 1083.43 160.938 1088.94 183.185C1094 163.982 1100.43 141.502 1108.02 115.977Z" fill="white"/>
</g>
<defs>
<clipPath id="clip0_476_384">
<rect width="1148" height="252" fill="white"/>
</clipPath>
</defs>
</svg>
