<svg width="202" height="40" viewBox="0 0 202 40" fill="none" xmlns="http://www.w3.org/2000/svg">
<path d="M46.1068 40L23.0541 0L0.00146484 40H46.1068ZM69.3579 38.1791L88.6233 1.81819H80.2904L67.0006 28.2247L53.711 1.81819H45.3778L64.6432 38.1791H69.3579ZM200.651 1.81819V38.1792H193.752V1.81819H200.651ZM162.249 24.6077C162.249 21.774 162.842 19.2816 164.028 17.1307C165.214 14.9798 166.867 13.3238 168.987 12.1631C171.106 11.0022 173.586 10.4218 176.425 10.4218C178.94 10.4218 181.203 10.9681 183.216 12.0606C185.227 13.1532 186.826 14.7749 188.012 16.9258C189.198 19.0768 189.808 21.7057 189.845 24.8126V26.4002H169.526C169.669 28.6535 170.334 30.4289 171.52 31.7263C172.742 32.9895 174.376 33.6212 176.425 33.6212C177.718 33.6212 178.903 33.2798 179.981 32.5969C181.059 31.9141 181.868 30.9922 182.407 29.8314L189.468 30.3435C188.605 32.9042 186.988 34.9527 184.616 36.4891C182.245 38.0255 179.514 38.7936 176.425 38.7936C173.586 38.7936 171.106 38.2132 168.987 37.0524C166.867 35.8916 165.214 34.2357 164.028 32.0848C162.842 29.9338 162.249 27.4415 162.249 24.6077ZM182.73 22.0471C182.478 19.8278 181.778 18.2062 180.628 17.1819C179.479 16.1235 178.077 15.5943 176.425 15.5943C174.52 15.5943 172.975 16.1576 171.789 17.2843C170.604 18.411 169.867 19.9986 169.58 22.0471H182.73ZM150.611 17.1819C151.761 18.1037 152.479 19.3841 152.767 21.0228L159.881 20.6644C159.629 18.5817 158.893 16.7722 157.672 15.2358C156.45 13.6995 154.868 12.5215 152.929 11.7022C151.024 10.8486 148.923 10.4218 146.623 10.4218C143.784 10.4218 141.305 11.0022 139.185 12.1631C137.065 13.3238 135.412 14.9798 134.227 17.1307C133.041 19.2816 132.448 21.774 132.448 24.6077C132.448 27.4415 133.041 29.9338 134.227 32.0848C135.412 34.2357 137.065 35.8916 139.185 37.0524C141.305 38.2132 143.784 38.7936 146.623 38.7936C148.994 38.7936 151.15 38.3668 153.091 37.5133C155.03 36.6256 156.612 35.3795 157.833 33.7748C159.055 32.1702 159.791 30.2923 160.043 28.1414L152.875 27.8342C152.623 29.6436 151.923 31.0435 150.773 32.0335C149.623 32.9895 148.239 33.4675 146.623 33.4675C144.395 33.4675 142.671 32.6993 141.449 31.1629C140.227 29.6265 139.616 27.4415 139.616 24.6077C139.616 21.774 140.227 19.5889 141.449 18.0525C142.671 16.5162 144.395 15.7479 146.623 15.7479C148.168 15.7479 149.497 16.2259 150.611 17.1819ZM115.614 11.0352H122.033L122.219 16.2592C122.675 14.7805 123.309 13.6322 124.121 12.8142C125.297 11.6282 126.938 11.0352 129.042 11.0352H131.663V16.6266H128.989C127.491 16.6266 126.26 16.8299 125.297 17.2365C124.37 17.6432 123.656 18.2871 123.158 19.1682C122.693 20.0492 122.462 21.1675 122.462 22.523V38.1791H115.614V11.0352ZM86.0027 17.1307C84.8169 19.2816 84.224 21.774 84.224 24.6077C84.224 27.4415 84.8169 29.9338 86.0027 32.0848C87.1884 34.2357 88.8407 35.8916 90.9609 37.0524C93.0811 38.2132 95.5599 38.7936 98.3987 38.7936C101.489 38.7936 104.22 38.0255 106.591 36.4891C108.962 34.9527 110.58 32.9042 111.442 30.3435L104.381 29.8314C103.842 30.9922 103.034 31.9141 101.956 32.5969C100.878 33.2798 99.6924 33.6212 98.3987 33.6212C96.3509 33.6212 94.7156 32.9895 93.4944 31.7263C92.3086 30.4289 91.644 28.6535 91.4998 26.4002H111.819V24.8126C111.783 21.7057 111.172 19.0768 109.987 16.9258C108.801 14.7749 107.202 13.1532 105.19 12.0606C103.177 10.9681 100.914 10.4218 98.3987 10.4218C95.5599 10.4218 93.0811 11.0022 90.9609 12.1631C88.8407 13.3238 87.1884 14.9798 86.0027 17.1307ZM102.603 17.1819C103.752 18.2062 104.453 19.8278 104.705 22.0471H91.5538C91.8414 19.9986 92.5777 18.411 93.7635 17.2843C94.9492 16.1576 96.4943 15.5943 98.3987 15.5943C100.052 15.5943 101.453 16.1235 102.603 17.1819Z" fill="white"/>
</svg>
