<svg width="243" height="40" viewBox="0 0 243 40" fill="none" xmlns="http://www.w3.org/2000/svg">
<path d="M72.9724 0C89.2932 7.10584e-05 97.8686 6.85088 97.8686 20C97.8684 33.1488 89.2929 40 72.9724 40C56.6526 39.9997 48.1314 33.1485 48.1311 20C48.1311 6.85104 56.6524 0.000253802 72.9724 0ZM186.975 0C179.103 11.256 179.057 28.7035 186.975 40H181.655C173.735 28.7035 173.781 11.2559 181.655 0H186.975ZM235.751 0C243.623 11.2559 243.669 28.7035 235.751 40H230.431C238.351 28.7035 238.305 11.256 230.431 0H235.751ZM208.703 0.0546875C219.735 0.0548456 228.676 8.9852 228.676 20C228.676 31.0149 219.733 39.9451 208.703 39.9453C197.673 39.9453 188.73 31.0149 188.73 20C188.73 8.98515 197.673 0.0547528 208.703 0.0546875ZM24.3981 28.5077L34.4665 0.664061H48.2432L32.9724 39.336H15.2683L0 0.664061H14.1627L24.3981 28.5077ZM116.238 39.336H102.959V0.664061H116.238V39.336ZM147.311 0.664061C160.755 0.664093 168.445 6.74035 168.445 20C168.444 33.2592 160.7 39.3357 147.257 39.336H122.968V0.664061H147.311ZM220.868 11.6224C220.573 10.9621 219.688 10.8382 219.23 11.3984L201.954 32.5573C201.541 33.0656 201.739 33.8272 202.348 34.0704C204.137 34.7848 206.254 35.1381 208.703 35.1381C217.767 35.1379 222.352 30.2763 222.352 20C222.352 16.6243 221.855 13.8397 220.868 11.6224ZM72.9724 9.50261C65.2829 9.50285 61.6862 12.8179 61.6862 20C61.6862 27.1816 65.2831 30.4424 72.9724 30.4427C80.6624 30.4427 84.2588 27.2371 84.2588 20C84.2588 12.7625 80.6624 9.50267 72.9724 9.50261ZM136.247 29.9453H145.431C151.737 29.9451 154.835 27.2368 154.835 20C154.835 12.7629 151.737 10.055 145.431 10.0547H136.247V29.9453ZM208.703 4.91667C199.587 4.91672 195.054 9.77896 195.054 20C195.054 23.3887 195.549 26.189 196.538 28.4192C196.832 29.0811 197.718 29.204 198.176 28.6432L215.421 7.48176C215.835 6.97349 215.634 6.21259 215.024 5.97136C213.241 5.26608 211.133 4.91669 208.703 4.91667Z" fill="#F9F9F9"/>
</svg>
