<?xml version="1.0" encoding="UTF-8" standalone="no"?>
<svg
   viewBox="0 0 512 512"
   version="1.1"
   id="svg2"
   sodipodi:docname="favicon.svg"
   xml:space="preserve"
   inkscape:version="1.4.3 (0d15f75042, 2025-12-25)"
   xmlns:inkscape="http://www.inkscape.org/namespaces/inkscape"
   xmlns:sodipodi="http://sodipodi.sourceforge.net/DTD/sodipodi-0.dtd"
   xmlns="http://www.w3.org/2000/svg"
   xmlns:svg="http://www.w3.org/2000/svg"><defs
     id="defs2" /><sodipodi:namedview
     id="namedview2"
     pagecolor="#ffffff"
     bordercolor="#000000"
     borderopacity="0.25"
     inkscape:showpageshadow="2"
     inkscape:pageopacity="0.0"
     inkscape:pagecheckerboard="0"
     inkscape:deskcolor="#d1d1d1"
     inkscape:zoom="1.7832031"
     inkscape:cx="256"
     inkscape:cy="256"
     inkscape:window-width="1920"
     inkscape:window-height="1131"
     inkscape:window-x="0"
     inkscape:window-y="0"
     inkscape:window-maximized="1"
     inkscape:current-layer="svg2" /><rect
     width="512"
     height="512"
     rx="64"
     fill="#0a0a0a"
     id="rect1" /><text
     x="320"
     y="370"
     font-family="'Geist Mono', ui-monospace, SFMono-Regular, 'SF Mono', Menlo, Consolas, monospace"
     font-size="420"
     font-weight="500"
     text-anchor="middle"
     fill="#fafafa"
     id="text2"><tspan
       id="tspan2">/</tspan></text><g
     fill="none"
     fill-rule="evenodd"
     id="g2"
     transform="matrix(1.8708504,0,0,1.8708504,111.01335,309.96451)"><path
       fill="#ff4785"
       fill-rule="nonzero"
       d="m 3.1945652,29.552358 -0.9934,-26.4720004 c -0.032962,-0.8743166 0.6373688,-1.6153813 1.5106,-1.67 L 26.228565,0.00315756 c 0.444276,-0.02783207 0.880289,0.12926818 1.204713,0.43407157 0.324425,0.30480338 0.508287,0.73018117 0.508287,1.17532847 V 30.458558 c 0,0.440184 -0.180038,0.861216 -0.498204,1.165407 -0.318166,0.304192 -0.746853,0.465101 -1.186596,0.445393 l -21.5229998,-0.9666 c -0.8382738,-0.03761 -1.5075776,-0.711872 -1.539,-1.5504 z"
       id="path1" /><path
       fill="#ffffff"
       d="m 24.458165,0.11395756 -3.099,0.1936 -0.151,3.63440004 c -0.0038,0.093005 0.04644,0.1798422 0.128928,0.2229687 0.08249,0.043126 0.182451,0.034804 0.256672,-0.021369 l 1.412,-1.0708 1.1924,0.9394 c 0.07355,0.058061 0.174131,0.068096 0.2577,0.02571 0.08357,-0.042386 0.134895,-0.1294678 0.1315,-0.2231103 l -0.1292,-3.70100004 z m -2.4118,12.17120044 c -0.5672,0.4406 -4.793,0.7414 -4.793,0.114 0.0894,-2.3938 -0.9824,-2.4988004 -1.5778,-2.4988004 -0.5656,0 -1.518,0.1710004 -1.518,1.4534004 0,1.3068 1.392,2.0446 3.026,2.9106 2.3214,1.23 5.1308,2.7188 5.1308,6.4652 0,3.5906 -2.9176,5.5742 -6.6388,5.5742 -3.8402,0 -7.1961998,-1.5538 -6.8171998,-6.9404 0.1488,-0.6326 5.0311998,-0.4822 5.0311998,0 -0.0596,2.2228 0.4464,2.8766 1.7266,2.8766 0.9824,0 1.4288,-0.5416 1.4288,-1.4534 0,-1.38 -1.4504,-2.1946 -3.119,-3.1314 -2.2594,-1.2686 -4.9187998,-2.7616 -4.9187998,-6.1872 0,-3.4196004 2.3519998,-5.6994004 6.5493998,-5.6994004 4.1976,0 6.4898,2.2448 6.4898,6.5168004 z"
       id="path2" /></g></svg>
